<svg width="43" height="45" viewBox="0 0 43 45" fill="none" xmlns="http://www.w3.org/2000/svg">
<g filter="url(#filter0_d_6_345)">
<path fill-rule="evenodd" clip-rule="evenodd" d="M24.881 24.5688C23.1136 25.6803 21.0167 26.3247 18.7644 26.3247C12.4266 26.3247 7.31958 21.2225 7.31958 14.9665C7.31958 8.71051 12.4266 3.60828 18.7644 3.60828C25.1022 3.60828 30.2092 8.71051 30.2092 14.9665C30.2092 18.1486 28.8879 21.0323 26.7553 23.0977L26.5552 22.898L24.881 24.5688ZM26.508 27.0894C24.27 28.5048 21.6135 29.3247 18.7644 29.3247C10.7867 29.3247 4.31958 22.8963 4.31958 14.9665C4.31958 7.03667 10.7867 0.608276 18.7644 0.608276C26.7421 0.608276 33.2092 7.03667 33.2092 14.9665C33.2092 18.9815 31.5514 22.6115 28.879 25.2172L38.0254 34.3455L35.902 36.4647L26.508 27.0894Z" fill="white"/>
</g>
<defs>
<filter id="filter0_d_6_345" x="0.31958" y="0.608276" width="43.4742" height="44.6185" filterUnits="userSpaceOnUse" color-interpolation-filters="sRGB">
<feFlood flood-opacity="0" result="BackgroundImageFix"/>
<feColorMatrix in="SourceAlpha" type="matrix" values="0 0 0 0 0 0 0 0 0 0 0 0 0 0 0 0 0 0 127 0" result="hardAlpha"/>
<feOffset dy="4"/>
<feGaussianBlur stdDeviation="2"/>
<feColorMatrix type="matrix" values="0 0 0 0 0 0 0 0 0 0 0 0 0 0 0 0 0 0 0.25 0"/>
<feBlend mode="normal" in2="BackgroundImageFix" result="effect1_dropShadow_6_345"/>
<feBlend mode="normal" in="SourceGraphic" in2="effect1_dropShadow_6_345" result="shape"/>
</filter>
</defs>
</svg>
